Motion_pu02
version=1
nRows=12
nColumns=43
inDegrees=yes
endheader
time	pelvis_tilt	pelvis_list	pelvis_rotation	pelvis_tx	pelvis_ty	pelvis_tz	hip_flexion_r	hip_adduction_r	hip_rotation_r	knee_angle_r	ankle_angle_r	subtalar_angle_r	mtp_angle_r	hip_flexion_l	hip_adduction_l	hip_rotation_l	knee_angle_l	ankle_angle_l	subtalar_angle_l	mtp_angle_l	lumbar_extension	lumbar_bending	lumbar_rotation	neck_flexion	neck_lateral_bending	neck_rotation	arm_flex_r	arm_add_r	arm_rot_r	elbow_flex_r	pro_sup_r	wrist_flex_r	wrist_dev_r	hand_finger_flex_r	arm_flex_l	arm_add_l	arm_rot_l	elbow_flex_l	pro_sup_l	wrist_flex_l	wrist_dev_l	hand_finger_flex_l
      4.72000000	     -1.05025047	     -6.79891949	    -99.89581766	      0.03836773	      0.84267608	      1.28000109	     11.92991932	     -8.67271400	     -0.93928375	    -86.56303110	     13.89343601	    -21.06000541	     17.88297456	      2.60288735	    -12.64771010	    -23.76036781	    -87.51145885	     12.70636974	    -13.33425493	     18.03893016	      5.38015726	      2.47418931	      2.41707017	      3.96515536	      0.01036890	      8.55387664	    162.45669322	    -14.28444014	     45.77927819	     33.46935194	    122.56719118	     17.61630688	     -0.94135815	     61.13290138	    172.36410859	    -22.26956113	     72.11658382	     38.40324604	    106.18119544	     24.42020239	      9.06902672	     79.37558445
      4.72250000	     -1.03149155	     -7.00041789	    -99.92229399	      0.03842626	      0.84364136	      1.28201950	     11.98436547	     -8.69603442	     -0.95212943	    -86.53036817	     13.90779175	    -21.06395675	     17.87990218	      2.65243350	    -12.65655868	    -23.77034658	    -87.58129287	     12.73150910	    -13.34188492	     18.03746275	      5.37726445	      2.46534199	      2.43899775	      3.98910249	      0.01939957	      8.55959684	    162.31476021	    -14.26232037	     45.80730989	     33.47377165	    122.56243901	     17.65655828	     -0.94433233	     61.13853154	    172.22771236	    -22.31699666	     72.14538499	     38.42254723	    106.18236868	     24.45806598	      9.07845222	     79.37376486
      4.72500000	     -0.97408135	     -7.18813831	    -99.96469190	      0.03850614	      0.84492963	      1.28450021	     11.96808485	     -8.79982371	     -1.02138076	    -86.32556957	     13.97394374	    -21.08161838	     17.86611049	      2.59058976	    -12.60184588	    -23.85456280	    -87.46963094	     12.80282341	    -13.34005227	     18.02024754	      5.47983817	      2.44316258	      2.51251758	      3.92714951	      0.04057618	      8.59662746	    162.06727112	    -14.29737598	     45.80607422	     33.64173761	    122.51990536	     17.82955839	     -0.95734927	     61.17332250	    171.94376328	    -22.49746319	     72.11640487	     38.72155849	    106.14631564	     24.65301164	      9.11681090	     79.38193093
      4.72750000	     -0.95800653	     -7.39597872	   -100.01784806	      0.03855410	      0.84596380	      1.28650264	     12.03493519	     -8.82934607	     -1.02780143	    -86.27994048	     13.99430432	    -21.08790190	     17.86466285	      2.62132704	    -12.60264246	    -23.86274829	    -87.55419930	     12.83051720	    -13.34677493	     18.01889897	      5.47237731	      2.43404418	      2.51048847	      3.95154810	      0.04759097	      8.60187095	    161.89265199	    -14.29028795	     45.83736843	     33.64343478	    122.51712987	     17.88179429	     -0.95265833	     61.18229744	    171.81754112	    -22.54695957	     72.11975727	     38.75526001	    106.14311585	     24.70114564	      9.13384618	     79.38376605
      4.73000000	     -0.89992572	     -7.59676188	   -100.06179628	      0.03855469	      0.84732654	      1.28901772	     11.99087085	     -8.91776042	     -1.06547256	    -86.05533670	     14.08383430	    -21.11957388	     17.86283653	      2.53615354	    -12.54064477	    -23.96422495	    -87.40239667	     12.90195331	    -13.32558332	     17.99983251	      5.56854805	      2.40189665	      2.56916869	      3.90089507	      0.07665282	      8.66080156	    161.60606235	    -14.33319324	     45.79227797	     33.85885521	    122.46966415	     18.08919604	     -0.93300459	     61.23213022	    171.51455841	    -22.74604634	     71.98132318	     39.10048193	    106.10041739	     24.95519356	      9.22356493	     79.41207042
      4.73250000	     -0.88296407	     -7.81273163	   -100.09234012	      0.03862203	      0.84838731	      1.29099688	     12.04910712	     -8.93541249	     -1.05735635	    -86.02167740	     14.10127836	    -21.12732590	     17.86386518	      2.57391833	    -12.54817050	    -23.97780805	    -87.49042153	     12.92536238	    -13.32755046	     17.99867086	      5.55521170	      2.39376824	      2.56858528	      3.93740946	      0.08830723	      8.67019979	    161.44410102	    -14.31755373	     45.81087630	     33.86353593	    122.46770541	     18.13745052	     -0.92214685	     61.24172996	    171.35890018	    -22.79725324	     71.98233139	     39.11832154	    106.10355649	     25.00738977	      9.25102717	     79.41598399
      4.73500000	     -0.84574894	     -8.02008514	   -100.11440546	      0.03871655	      0.84982131	      1.29352423	     11.98034180	     -8.96790838	     -1.05824206	    -85.78998540	     14.16055031	    -21.16728603	     17.87084316	      2.49169917	    -12.51091851	    -24.05888786	    -87.33668659	     12.96322057	    -13.27500096	     17.98201967	      5.64553897	      2.38659006	      2.61942285	      3.96480026	      0.13699918	      8.73938614	    161.14373755	    -14.37089891	     45.73365316	     34.07788810	    122.42849353	     18.31664034	     -0.87982579	     61.29403982	    171.02708456	    -22.98191926	     71.80919899	     39.43158129	    106.07690880	     25.25663117	      9.36734095	     79.45677423
      4.73750000	     -0.83073248	     -8.24651685	   -100.15239748	      0.03867304	      0.85093413	      1.29547838	     12.04065582	     -8.97150524	     -1.05528827	    -85.77297579	     14.17509954	    -21.18061186	     17.87338110	      2.51526840	    -12.52665773	    -24.07007988	    -87.42894545	     12.98481550	    -13.26973836	     17.98126465	      5.62320110	      2.37298185	      2.61239677	      4.00139745	      0.15347716	      8.75024686	    160.96420771	    -14.34509827	     45.74728043	     34.09501004	    122.42736466	     18.36877961	     -0.86377276	     61.30686463	    170.86898458	    -23.03070396	     71.79007526	     39.45745283	    106.08198935	     25.31753028	      9.40445717	     79.46498782
      4.74000000	     -0.81086288	     -8.46275580	   -100.15746380	      0.03870005	      0.85212200	      1.29759156	     12.05718904	     -8.96025010	     -1.04136834	    -85.70037601	     14.18405061	    -21.19522865	     17.87513625	      2.53618880	    -12.54059200	    -24.08727560	    -87.45806556	     13.00231402	    -13.25111766	     17.98030234	      5.64247273	      2.36670313	      2.63303574	      4.07553986	      0.18411463	      8.76844489	    160.75077568	    -14.33373400	     45.75711993	     34.15450486	    122.41721105	     18.42628645	     -0.85285899	     61.32420888	    170.65456189	    -23.10862914	     71.77695356	     39.53665575	    106.07896294	     25.39711685	      9.44043779	     79.47944687
      4.74250000	     -0.87927549	     -9.06219409	   -100.35451198	      0.03838855	      0.85459195	      1.30030893	     11.48971707	     -8.88859426	     -0.91435623	    -85.30318639	     14.11329105	    -21.44645332	     17.90067887	      1.84055456	    -12.54755642	    -24.32821347	    -87.10107801	     13.16285946	    -12.74346079	     17.93261041	      5.36459792	      2.38489535	      2.78899982	      3.65161079	      0.36315069	      9.05170302	    160.08202707	    -14.40340875	     44.71243329	     34.69381696	    122.57388250	     19.11381811	     -0.16360946	     61.59400776	    169.75185023	    -23.28652710	     69.99107613	     40.11566973	    106.48601797	     26.66999110	     10.63533137	     79.69970692
      4.74500000	     -0.85513539	     -9.25716043	   -100.36063766	      0.03836136	      0.85572517	      1.30234449	     11.54673051	     -8.89742922	     -0.93683722	    -85.26229459	     14.10912601	    -21.44196794	     17.90197219	      1.89204045	    -12.58811857	    -24.35739128	    -87.16242075	     13.17523326	    -12.74667303	     17.93177584	      5.39068086	      2.38128763	      2.79943316	      3.78191374	      0.39025025	      9.03212393	    159.89307438	    -14.37841498	     44.77451503	     34.74865092	    122.59703940	     19.12973911	     -0.16503522	     61.59205881	    169.58377121	    -23.36678764	     70.03055780	     40.15525121	    106.52652896	     26.68714138	     10.65898201	     79.68734438
      4.74750000	     -0.83822906	     -9.44442932	   -100.39581375	      0.03825989	      0.85688802	      1.30447058	     11.56677009	     -8.91941162	     -0.97245739	    -85.14620934	     14.10062056	    -21.42759655	     17.90323115	      1.93859285	    -12.61459316	    -24.37727731	    -87.19461855	     13.18728018	    -12.73486319	     17.93187037	      5.44758903	      2.37898938	      2.82859537	      3.93918353	      0.42226962	      9.01885478	    159.67181102	    -14.38590028	     44.82564529	     34.83309728	    122.61349507	     19.14809484	     -0.16956837	     61.59429123	    169.37352578	    -23.44721709	     70.06045001	     40.25510163	    106.55826435	     26.72052238	     10.68046963	     79.68034227
